<svg data-v-423bf9ae="" xmlns="http://www.w3.org/2000/svg" viewBox="0 0 73.53933116530168 60" class="font"><!----><!----><defs data-v-423bf9ae=""><linearGradient data-v-423bf9ae="" gradientTransform="rotate(25)" id="18ad3fe3-bbe9-42c8-bb1b-16588bfc3125" x1="0%" y1="0%" x2="100%" y2="0%"><stop data-v-423bf9ae="" offset="0%" style="stop-color: rgb(142, 66, 211); stop-opacity: 1;"></stop><stop data-v-423bf9ae="" offset="100%" style="stop-color: rgb(212, 105, 117); stop-opacity: 1;"></stop></linearGradient></defs><g data-v-423bf9ae="" id="fab2c390-a418-4493-83e0-a227ca8fa853" fill="url(#18ad3fe3-bbe9-42c8-bb1b-16588bfc3125)" transform="matrix(5.617977869218204,0,0,5.617977869218204,-0.8988771082183931,-36.23595570807602)"><path d="M5.64 15.76L5.64 15.76Q5.37 15.98 5.02 16.23Q4.68 16.47 4.29 16.67Q3.90 16.87 3.47 17.00Q3.04 17.13 2.60 17.13L2.60 17.13Q2.47 17.13 2.34 17.10Q2.21 17.06 2.11 16.98Q2.01 16.89 1.94 16.75Q1.88 16.60 1.89 16.39L1.89 16.39Q1.89 16.13 1.91 15.11L1.91 15.11Q1.92 14.68 1.94 14.04Q1.96 13.40 1.98 12.49Q2.00 11.58 2.04 10.37Q2.07 9.17 2.11 7.61L2.11 7.61Q1.93 7.63 1.76 7.63Q1.59 7.64 1.42 7.64L1.42 7.64Q1.16 7.64 0.83 7.62Q0.51 7.61 0.16 7.57L0.16 7.57L1.89 6.47Q2.42 6.55 2.89 6.58Q3.36 6.60 3.67 6.60L3.67 6.60Q4.01 6.60 4.33 6.58Q4.65 6.56 4.96 6.52Q5.26 6.49 5.56 6.47Q5.87 6.45 6.17 6.45L6.17 6.45Q6.77 6.45 7.33 6.58Q7.88 6.72 8.30 7.01Q8.72 7.30 8.97 7.77Q9.21 8.23 9.21 8.89L9.21 8.89Q9.21 9.24 9.10 9.60Q8.98 9.97 8.72 10.33Q8.45 10.70 8.01 11.06Q7.57 11.42 6.92 11.74L6.92 11.74Q7.59 12.37 8.15 12.87Q8.71 13.37 9.16 13.76Q9.61 14.15 9.96 14.43Q10.31 14.72 10.58 14.92L10.58 14.92Q11.19 15.40 11.53 15.58L11.53 15.58Q11.70 15.66 11.89 15.72L11.89 15.72Q12.05 15.78 12.26 15.82Q12.47 15.86 12.70 15.86L12.70 15.86Q12.84 15.86 12.98 15.84Q13.12 15.81 13.25 15.76L13.25 15.76Q12.93 16.01 12.61 16.24Q12.30 16.46 11.98 16.63Q11.66 16.80 11.34 16.90Q11.01 16.99 10.67 16.99L10.67 16.99Q10.48 16.99 10.30 16.96Q10.12 16.92 9.94 16.84Q9.75 16.75 9.57 16.63Q9.38 16.50 9.17 16.30L9.17 16.30Q8.89 16.07 8.34 15.59L8.34 15.59Q8.11 15.38 7.79 15.09Q7.48 14.81 7.07 14.43Q6.66 14.05 6.14 13.58Q5.63 13.10 5.00 12.51L5.00 12.51Q5.49 12.33 5.93 12.07Q6.36 11.81 6.69 11.47Q7.01 11.14 7.20 10.72Q7.39 10.31 7.39 9.81L7.39 9.81Q7.39 9.21 7.14 8.76Q6.90 8.31 6.50 8.00Q6.11 7.70 5.61 7.55Q5.11 7.40 4.61 7.40L4.61 7.40Q4.20 7.40 3.82 7.44L3.82 7.44L3.55 15.76Q3.71 15.87 3.93 15.92Q4.15 15.97 4.38 15.97L4.38 15.97Q4.61 15.97 4.84 15.94Q5.07 15.91 5.24 15.87L5.24 15.87Q5.46 15.82 5.64 15.76Z"></path></g><!----><!----></svg>